<?xml version="1.0" encoding="UTF-8"?>
<!DOCTYPE svg PUBLIC "-//W3C//DTD SVG 1.1//EN" "http://www.w3.org/Graphics/SVG/1.1/DTD/svg11.dtd">
<svg version="1.1" xmlns="http://www.w3.org/2000/svg" xmlns:xlink="http://www.w3.org/1999/xlink" x="0" y="0" width="478" height="555" viewBox="0, 0, 478, 555">
  <g id="Layer_1">
    <path d="M299.341,296.588 L300.01,297.376 C301.718,299.472 303.13,301.529 304.418,303.645 C305.725,305.741 306.903,307.865 308.032,310.001 C310.276,314.277 312.29,318.612 314.172,322.994 C315.105,325.19 316.022,327.384 316.923,329.585 C317.381,330.68 317.828,331.782 318.31,332.862 C318.543,333.407 318.785,333.947 319.058,334.465 C319.192,334.727 319.339,334.977 319.498,335.218 C319.661,335.458 319.818,335.711 320.104,335.818 C319.789,335.857 319.477,335.679 319.209,335.529 C318.941,335.363 318.686,335.175 318.443,334.982 C317.955,334.593 317.494,334.179 317.043,333.759 C316.156,332.907 315.314,332.022 314.505,331.118 C312.875,329.317 311.35,327.455 309.845,325.591 C306.854,321.855 304.031,318.046 301.211,314.32 C299.805,312.457 298.396,310.615 296.994,308.827 C295.568,307.066 294.166,305.302 292.734,303.851 L292.205,303.33 L291.948,303.083 L291.821,302.96 L291.754,302.92 L291.56,302.776 L291.319,302.667 C290.961,302.535 290.476,302.36 289.7,302.316 C288.208,302.143 286.081,302.342 283.931,302.643 C281.748,302.913 279.443,303.315 277.091,303.673 C274.729,304.003 272.325,304.376 269.872,304.593 C264.978,305.066 259.939,305.191 254.948,304.646 C244.968,303.628 235.25,299.988 227.69,293.888 C237.144,296.105 246.213,297.185 255.176,296.602 C259.653,296.355 264.091,295.752 268.577,294.964 C273.081,294.194 277.576,293.186 282.575,292.468 C283.2,292.38 283.837,292.309 284.5,292.252 C285.144,292.182 285.821,292.138 286.513,292.108 C287.881,292.038 289.359,292.044 290.96,292.252 C292.54,292.457 294.361,292.969 296.097,293.929 C296.528,294.192 296.96,294.455 297.372,294.747 C297.767,295.07 298.155,295.406 298.531,295.75 L298.799,296 L298.981,296.197 C299.102,296.327 299.23,296.457 299.341,296.588 M135.276,134.731 C135.276,134.731 141.693,175.804 169.931,198.908 C140.409,186.928 116.45,148.421 118.162,119.329 C143.832,124.462 158.379,131.309 169.931,175.804 C150.678,145 135.276,134.731 135.276,134.731 M251.354,209.215 C249.255,210.874 246.515,211.578 243.913,211.5 C241.294,211.423 238.759,210.616 236.587,209.315 C234.404,208.03 232.547,206.271 231.219,204.203 C233.307,205.517 235.34,206.672 237.468,207.517 C239.597,208.339 241.795,208.873 243.986,208.934 C246.174,209 248.338,208.584 250.243,207.559 C252.144,206.527 253.72,204.816 254.804,202.598 C254.775,205.063 253.479,207.606 251.354,209.215 M273.896,208.319 C260.206,189.495 246.087,182.649 203.731,186.073 L219.988,198.908 C235.926,213.562 240.777,218.329 250.617,217.045 C260.458,215.762 256.948,211.817 265.742,216.021 C277.266,221.53 283.31,251.104 283.31,251.104 C283.31,251.104 285.021,260.088 301.277,261.373 C287.588,259.662 287.588,227.146 273.896,208.319 M382.607,292.167 C384.646,288.637 391.952,289.041 398.927,293.068 C405.901,297.094 409.903,303.22 407.865,306.75 C405.827,310.281 398.521,309.877 391.546,305.85 C384.571,301.824 380.569,295.698 382.607,292.167 M349.415,452.614 C349.162,453.663 348.905,454.733 348.646,455.816 C325.7,465.54 300.468,470.919 273.978,470.919 C168.2,470.919 82.45,385.169 82.45,279.391 C82.45,247.617 90.196,217.655 103.89,191.275 C118.024,206.251 137.58,219.609 141.808,222.429 L159.82,246.845 C166.294,281.782 178.452,345.061 220.835,358.734 C239.042,364.607 257.501,367.583 273.788,370.208 C293.21,373.338 309.983,376.043 319.679,382.506 C325.38,386.306 333.046,389.203 341.074,391.3 C341.833,393.027 342.74,394.783 343.661,396.564 C348.281,405.494 354.608,417.723 352.505,437.59 C352.087,441.542 350.849,446.671 349.415,452.614 M406.417,439.112 C412.509,414.441 413.915,386.623 399.143,371.774 C402.661,372.751 406.01,374.097 409.013,375.895 C422.193,387.898 427.938,410.499 406.417,439.112 M364.675,447.689 C366.193,441.396 367.505,435.96 367.994,431.339 C370.422,408.409 362.982,394.029 358.06,384.511 C356.55,381.592 354.48,377.593 354.702,376.512 L354.774,376.418 C355.696,375.363 357.429,374.325 359.74,373.389 C385.639,387.629 376.987,430.715 371.216,459.397 C370.605,462.428 370.032,465.279 369.542,467.891 C364.487,494.842 370.22,510.509 375.918,518.907 C376.251,519.397 376.589,519.86 376.927,520.314 C351.855,500.841 359.086,470.852 364.675,447.689 M377.922,369.78 C399.198,385.858 396.605,410.11 378.913,470.435 C373.725,488.128 377.546,504.903 381.534,515.656 C382.107,518.667 382.93,521.51 383.994,524.173 C382.049,522.5 379.923,520.267 377.938,517.312 C372.571,509.318 367.194,494.335 372.065,468.365 C372.553,465.761 373.125,462.922 373.732,459.904 C379.514,431.181 388.109,388.383 362.917,372.282 C367.04,371.04 372.272,370.111 377.922,369.78 M382.375,369.646 C386.148,369.646 390.019,369.936 393.797,370.584 C406.604,380.059 408.702,397.975 408.027,412.042 C407.561,421.781 405.598,432.892 402.461,444.136 C390.958,458.697 380.964,481.875 380.537,503.102 C378.594,493.883 377.984,482.724 381.376,471.159 C398.499,412.775 401.539,386.592 381.828,369.655 C382.011,369.653 382.191,369.646 382.375,369.646 M345.828,136.497 C341.646,131.417 333.592,125.785 328.168,122.292 C331.218,119.456 335.536,115.749 339.767,112.119 C356.478,97.774 371.08,84.748 377.966,73.925 C377.966,75.183 378.01,76.801 378.063,78.817 C378.498,94.947 379.598,135.857 361.813,160.059 C358.145,153.798 352.163,144.191 345.828,136.497 M424.821,370.143 C430.536,375.955 434.535,383.016 436.56,390.767 C462.37,358.132 477.782,316.897 477.782,272.059 C477.782,206.396 444.733,148.46 394.368,113.954 C392.287,133.952 386.667,156.642 372.299,171.86 C379.546,198.388 391.071,233.384 398.974,240.425 C406.801,247.397 416.323,260.421 424.725,271.914 C430.536,279.862 437.123,288.872 439.537,290.528 C442.825,292.785 446.096,298.296 447.745,323.128 C448.602,336.036 448.611,348.143 448.611,348.653 L446.9,348.653 L447.391,355.631 C445.026,355.621 442.698,355.564 440.381,355.486 L439.9,348.653 L441.611,348.653 C441.611,348.143 441.602,336.036 440.745,323.128 C439.096,298.296 435.825,292.785 432.537,290.528 C430.123,288.872 423.536,279.862 417.725,271.914 C409.323,260.421 399.801,247.397 391.974,240.425 C384.071,233.384 372.546,198.388 365.299,171.86 C379.667,156.642 385.287,133.952 387.368,113.954 C388.883,99.41 388.537,86.293 388.328,78.54 C388.26,76.005 388.206,74.002 388.249,73.004 C388.623,64.404 384.755,57.164 379.442,56.52 C376.359,56.152 372.818,58.008 371.819,63.003 C370.428,69.961 358.287,82.028 346.446,92.662 C331.946,87.227 316.611,83.504 300.686,81.731 C300.973,82.908 301.249,84.087 301.503,85.271 C302.357,89.27 303.012,93.307 303.438,97.417 C303.663,99.475 303.828,101.542 303.929,103.67 C303.993,104.719 304.008,105.824 304.035,106.914 L304.034,108.415 L304.033,108.63 C304.036,108.903 304.017,109.262 304.009,109.573 L303.991,110.057 L303.933,110.783 L301.536,110.429 L301.565,110.057 L301.583,109.573 C301.592,109.262 301.61,108.903 301.608,108.63 L301.61,106.914 C301.583,105.824 301.568,104.719 301.504,103.67 C301.403,101.542 301.236,99.475 301.012,97.417 C300.586,93.307 299.933,89.27 299.077,85.271 L299.063,85.205 C294.8,85.822 290.584,86.936 286.538,88.54 C283.907,89.57 281.345,90.797 278.875,92.2 C276.407,93.602 274.011,95.159 271.806,96.973 C273.87,94.998 276.157,93.253 278.538,91.653 C280.922,90.054 283.422,88.616 286.022,87.365 C289.994,85.435 294.209,83.962 298.56,82.986 C297.359,77.845 295.845,72.771 293.923,67.83 C293.533,67.837 293.143,67.838 292.752,67.857 C287.561,68.046 282.37,69.1 277.426,70.917 C274.952,71.824 272.533,72.907 270.21,74.181 C267.888,75.454 265.629,76.873 263.56,78.555 C265.487,76.711 267.641,75.102 269.88,73.629 C272.121,72.156 274.485,70.859 276.936,69.731 C281.833,67.47 287.112,65.936 292.546,65.298 C292.657,65.285 292.769,65.276 292.879,65.264 C292.414,64.161 291.934,63.063 291.425,61.975 C289.62,58.086 287.544,54.307 285.216,50.692 C284.919,50.675 284.622,50.651 284.325,50.644 C279.997,50.502 275.599,51.13 271.473,52.688 C267.369,54.253 263.449,56.585 260.332,59.824 C263.133,56.296 266.872,53.535 270.966,51.508 C274.849,49.602 279.143,48.505 283.51,48.144 C281.839,45.74 280.055,43.417 278.146,41.206 C276.056,38.784 273.826,36.494 271.486,34.35 C268.143,34.356 264.782,34.781 261.528,35.73 C257.437,36.922 253.473,38.845 250.153,41.664 C253.185,38.526 257.006,36.166 261.107,34.518 C263.692,33.477 266.41,32.756 269.188,32.325 C266.183,29.776 263.014,27.471 259.713,25.458 C257.634,24.196 255.514,23.056 253.368,22.003 C251.693,22.004 250.018,22.109 248.351,22.352 C246.276,22.687 244.191,23.114 242.205,23.863 C240.214,24.58 238.26,25.488 236.531,26.759 C238.127,25.319 240.006,24.202 241.958,23.271 C243.906,22.305 245.992,21.651 248.104,21.092 C248.859,20.904 249.623,20.75 250.391,20.614 C246.448,18.866 242.436,17.423 238.416,16.251 L232.945,14.902 L231.586,14.575 L230.211,14.348 L227.469,13.9 L224.743,13.461 L223.385,13.248 L222.017,13.129 L216.579,12.668 C214.78,12.464 212.97,12.503 211.174,12.466 L207.739,12.423 L205.807,12.399 C202.238,12.566 198.695,12.729 195.184,12.984 C191.673,13.401 188.183,13.748 184.724,14.227 L174.423,16.004 L184.785,16.792 C188.218,17.171 191.627,17.681 195.01,18.116 C198.382,18.712 201.72,19.395 205.026,20.062 L209.911,21.362 C211.528,21.806 213.157,22.171 214.718,22.767 L219.412,24.383 L220.577,24.785 L221.708,25.271 L223.957,26.246 L226.191,27.211 L227.302,27.69 L228.369,28.259 L232.594,30.51 C238.049,33.74 242.993,37.453 247.145,41.7 C255.425,50.267 260.269,60.794 262.276,71.94 C262.842,74.977 263.171,78.078 263.319,81.195 C250.258,82.272 237.57,84.66 225.383,88.226 C227.321,92.294 229.088,96.54 230.637,100.982 C231.745,104.16 232.738,107.442 233.603,110.834 C238.195,109.514 243.187,108.563 248.407,108.145 C254.991,108.484 261.688,110.437 268.017,113.432 C274.45,116.498 280.508,120.623 286.088,125.36 C291.646,130.132 296.736,135.548 301.093,141.537 C303.261,144.535 305.24,147.684 306.876,151.017 C307.65,152.695 308.417,154.399 308.934,156.184 C309.461,157.959 309.871,159.798 309.836,161.686 C310.086,159.813 309.888,157.899 309.557,156.033 C309.237,154.151 308.658,152.335 308.062,150.524 C306.782,146.935 305.126,143.481 303.256,140.153 C299.492,133.505 294.891,127.318 289.647,121.661 C286.727,118.546 283.601,115.588 280.259,112.847 L280.718,112.89 C291.461,113.887 302.206,117.846 312.893,124.703 L312.688,124.995 L317.059,127.523 C328.347,135.577 339.56,146.878 350.628,161.378 C351.467,162.751 352.234,164.04 352.921,165.209 C356.426,178.919 371.675,236.094 385.144,248.092 C392.156,254.338 401.336,266.896 409.436,277.974 C417.807,289.423 422.802,296.138 426.457,298.802 C429.274,302.798 431.196,325.981 431.335,346.339 C428.027,346.663 424.694,346.932 421.387,347.149 C415.239,347.545 409.076,347.745 402.915,347.684 C396.755,347.615 390.593,347.28 384.486,346.439 C381.439,346 378.406,345.434 375.422,344.647 C372.441,343.855 369.496,342.845 366.739,341.379 C369.271,343.211 372.102,344.643 375.006,345.861 C377.916,347.076 380.918,348.076 383.954,348.95 C390.038,350.661 396.257,351.868 402.503,352.801 C407.942,353.608 413.41,354.204 418.891,354.651 C415.903,357.451 412.464,360.817 409.075,364.439 C387.196,354.951 355.465,360.023 347.042,369.662 C346.109,370.729 345.466,371.821 345.044,372.932 C339.175,371.135 334.18,368.981 330.652,366.629 C319.1,358.927 301.306,356.058 280.701,352.737 C264.776,350.169 246.727,347.259 229.266,341.627 C192.239,329.683 181.011,269.052 174.979,236.479 L174.764,235.317 L154.26,207.522 L153.485,207.016 C153.184,206.819 123.306,187.206 109.894,168.917 C100.284,155.813 96.883,110.042 96.092,85.925 C115.391,93.949 149.764,110.108 156.488,121.876 C161.356,130.395 166.203,148.619 170.096,163.262 C176.065,185.707 177.5,190.491 182.417,191.445 C183.947,191.741 185.497,191.39 186.758,190.509 C197.168,186.107 205.159,178.031 209.314,167.682 C213.354,157.621 213.469,146.244 209.748,135.943 C219.202,133.077 227.204,127.222 232.776,117.875 C232.728,117.657 232.674,117.443 232.624,117.227 C229.662,104.252 224.789,92.887 218.963,82.631 C218.849,82.618 218.735,82.601 218.62,82.587 L216.796,82.393 L214.966,82.292 C213.744,82.197 212.523,82.252 211.299,82.245 C208.859,82.35 206.414,82.574 204.014,83.066 C199.221,84.046 194.57,85.881 190.466,88.626 C186.384,91.373 182.716,94.878 180.122,99.129 C182.532,94.767 186.07,91.068 190.099,88.1 C194.15,85.13 198.835,83.037 203.733,81.813 C206.186,81.201 208.697,80.859 211.217,80.643 C212.478,80.594 213.744,80.484 215.008,80.526 L216.905,80.55 L217.791,80.606 C217.223,79.642 216.65,78.682 216.067,77.735 C214.186,74.708 212.218,71.782 210.178,68.94 C207.957,68.393 205.709,67.965 203.44,67.688 L201.709,67.489 L199.971,67.38 C198.811,67.281 197.652,67.327 196.489,67.313 C194.171,67.401 191.849,67.608 189.568,68.074 C185.015,69.006 180.605,70.781 176.732,73.433 C172.88,76.083 169.443,79.472 167.032,83.548 C169.258,79.364 172.561,75.786 176.36,72.911 C180.176,70.034 184.623,67.998 189.286,66.822 C191.621,66.234 194.012,65.91 196.413,65.71 C197.615,65.668 198.82,65.568 200.024,65.616 L201.831,65.647 L203.633,65.773 C205.179,65.892 206.717,66.083 208.247,66.326 C205.43,62.564 202.476,58.967 199.406,55.518 C195.779,54.263 192.056,53.292 188.259,52.79 C186.08,52.466 183.879,52.378 181.678,52.381 C179.482,52.452 177.282,52.644 175.122,53.083 C170.809,53.966 166.638,55.682 162.999,58.241 C159.376,60.797 156.172,64.067 153.942,67.967 C155.985,63.962 159.052,60.505 162.619,57.724 C166.202,54.939 170.409,52.959 174.838,51.831 C177.055,51.269 179.328,50.959 181.61,50.779 C183.893,50.665 186.191,50.649 188.468,50.876 C191.11,51.099 193.727,51.534 196.306,52.126 C194.576,50.284 192.823,48.472 191.028,46.714 C189.058,44.803 187.041,42.946 184.994,41.127 C181.145,39.63 177.156,38.476 173.077,37.893 C171.023,37.564 168.945,37.461 166.867,37.45 C164.793,37.502 162.716,37.679 160.674,38.09 C156.602,38.926 152.672,40.583 149.266,43.05 C145.874,45.515 142.903,48.665 140.852,52.387 C142.714,48.563 145.544,45.229 148.878,42.54 C152.225,39.848 156.195,37.921 160.388,36.839 C162.489,36.304 164.643,36.009 166.807,35.847 C168.971,35.747 171.149,35.748 173.305,35.98 C175.696,36.201 178.063,36.612 180.396,37.163 C174.573,32.327 168.463,27.892 162.103,23.894 C160.713,23.533 159.313,23.214 157.895,22.994 C155.965,22.662 154.01,22.542 152.055,22.519 C150.103,22.554 148.148,22.713 146.226,23.1 C142.395,23.888 138.705,25.488 135.534,27.864 C132.373,30.234 129.635,33.265 127.762,36.807 C129.445,33.167 132.036,29.956 135.137,27.359 C138.247,24.758 141.977,22.885 145.938,21.849 C147.922,21.338 149.959,21.06 152.004,20.915 C153.785,20.839 155.576,20.854 157.353,21.013 C148.701,15.977 139.612,11.757 130.136,8.513 C127.141,9.349 124.287,10.746 121.802,12.679 C118.873,14.958 116.369,17.866 114.673,21.226 C116.177,17.771 118.529,14.687 121.395,12.183 C123.44,10.396 125.8,8.965 128.335,7.926 C127.452,7.638 126.574,7.338 125.685,7.066 C113.433,3.353 100.574,1.41 87.829,1.827 C75.094,2.214 62.557,5.045 51.3,10.026 C40.034,15.013 30.008,21.925 21.575,30.075 C14.662,36.771 8.725,44.148 3.425,51.831 C2.257,53.525 1.108,55.229 0,56.951 C8.142,49.02 16.849,41.863 26.252,36.192 C35.654,30.53 45.812,26.632 56.001,24.694 C76.497,20.735 96.787,25.552 113.834,35.5 C130.952,45.438 145.271,60.132 155.654,76.443 C160.829,84.602 165.001,93.223 167.805,101.755 C168.894,105.045 169.793,109.63 170.47,114.42 C168.927,115.486 167.4,116.575 165.89,117.686 C165.728,117.384 165.567,117.067 165.404,116.782 C154.543,97.775 98.932,75.897 92.627,73.465 L85.559,70.739 L85.646,78.315 C85.735,86.103 86.944,154.984 101.614,174.99 C103.816,177.992 106.389,180.998 109.168,183.942 C123.301,198.918 142.858,212.275 147.087,215.096 L165.098,239.511 C171.572,274.449 183.731,337.729 226.113,351.401 C244.319,357.273 262.778,360.249 279.066,362.875 C298.487,366.005 315.262,368.709 324.957,375.172 C330.657,378.973 338.324,381.87 346.353,383.967 C347.111,385.693 348.018,387.45 348.939,389.231 C353.56,398.161 359.887,410.39 357.783,430.257 C357.365,434.209 356.127,439.338 354.693,445.281 C354.44,446.33 354.183,447.4 353.925,448.483 C350.446,463.054 346.769,480.572 350.617,497.477 C355.563,519.206 372.153,534.415 399.93,542.68 L435.174,553.17 L404.151,533.428 C397.184,528.996 392.89,521.959 391.388,512.517 C388.027,491.404 399.164,464.272 411.349,449.462 C424.896,433 431.532,416.791 431.074,401.287 C430.968,397.678 430.446,394.16 429.56,390.767 C427.535,383.016 423.536,375.955 417.821,370.143 C424.377,363.292 430.994,357.487 433.324,355.485 C435.583,355.559 437.854,355.615 440.157,355.628 C437.699,357.747 431.236,363.44 424.821,370.143" fill="#0B0B09"/>
  </g>
</svg>
